HIERARCHY
ROOT mixamorig:Hips
{
	OFFSET 0.000000 201.639420 0.000000
	CHANNELS 6 Xposition Yposition Zposition Xrotation Yrotation Zrotation
	JOINT mixamorig:Spine
	{
		OFFSET 0.006200 19.524994 -2.481800
		CHANNELS 3 Xrotation Yrotation Zrotation
		JOINT mixamorig:Spine1
		{
			OFFSET -0.000900 22.835007 -2.825400
			CHANNELS 3 Xrotation Yrotation Zrotation
			JOINT mixamorig:Spine2
			{
				OFFSET -0.020600 26.552490 -3.193300
				CHANNELS 3 Xrotation Yrotation Zrotation
				JOINT mixamorig:Neck
				{
					OFFSET -0.060000 30.701813 1.352200
					CHANNELS 3 Xrotation Yrotation Zrotation
					JOINT mixamorig:Head
					{
						OFFSET -0.087200 22.547607 3.670900
						CHANNELS 3 Xrotation Yrotation Zrotation
						JOINT mixamorig:HeadTop_End
						{
							OFFSET -0.830600 40.355194 7.893500
							CHANNELS 3 Xrotation Yrotation Zrotation
							End Site
							{
								OFFSET 0.000000 30.592346 0.000000
							}
						}
						JOINT mixamorig:RightEye
						{
							OFFSET -6.302100 18.118591 16.197100
							CHANNELS 3 Xrotation Yrotation Zrotation
							End Site
							{
								OFFSET 0.000000 30.592346 0.000000
							}
						}
						JOINT mixamorig:LeftEye
						{
							OFFSET 6.741500 18.382690 16.401899
							CHANNELS 3 Xrotation Yrotation Zrotation
							End Site
							{
								OFFSET 0.000000 30.592346 0.000000
							}
						}
					}
				}
				JOINT mixamorig:LeftShoulder
				{
					OFFSET 11.924900 18.230499 1.425400
					CHANNELS 3 Xrotation Yrotation Zrotation
					JOINT mixamorig:LeftArm
					{
						OFFSET 25.435989 -0.697632 -5.229300
						CHANNELS 3 Xrotation Yrotation Zrotation
						JOINT mixamorig:LeftForeArm
						{
							OFFSET 54.684776 0.000000 0.000000
							CHANNELS 3 Xrotation Yrotation Zrotation
							JOINT mixamorig:LeftHand
							{
								OFFSET 55.098175 0.000000 0.000000
								CHANNELS 3 Xrotation Yrotation Zrotation
								JOINT mixamorig:LeftHandMiddle1
								{
									OFFSET 23.369751 0.000000 0.000000
									CHANNELS 3 Xrotation Yrotation Zrotation
									JOINT mixamorig:LeftHandMiddle2
									{
										OFFSET 6.378677 0.000000 0.000000
										CHANNELS 3 Xrotation Yrotation Zrotation
										JOINT mixamorig:LeftHandMiddle3
										{
											OFFSET 6.148331 0.000000 0.000000
											CHANNELS 3 Xrotation Yrotation Zrotation
											JOINT mixamorig:LeftHandMiddle4
											{
												OFFSET 6.582504 0.000000 0.000000
												CHANNELS 3 Xrotation Yrotation Zrotation
												End Site
												{
													OFFSET -1.168900 6.395691 1.028606
												}
											}
										}
									}
								}
								JOINT mixamorig:LeftHandThumb1
								{
									OFFSET 7.235672 -3.848206 5.434273
									CHANNELS 3 Xrotation Yrotation Zrotation
									JOINT mixamorig:LeftHandThumb2
									{
										OFFSET 6.568451 -3.792297 3.792300
										CHANNELS 3 Xrotation Yrotation Zrotation
										JOINT mixamorig:LeftHandThumb3
										{
											OFFSET 6.063080 -3.500519 3.500518
											CHANNELS 3 Xrotation Yrotation Zrotation
											JOINT mixamorig:LeftHandThumb4
											{
												OFFSET 4.793182 -2.767334 2.767349
												CHANNELS 3 Xrotation Yrotation Zrotation
												End Site
												{
													OFFSET 0.101639 6.054260 1.275483
												}
											}
										}
									}
								}
								JOINT mixamorig:LeftHandIndex1
								{
									OFFSET 23.101074 -0.309540 4.992809
									CHANNELS 3 Xrotation Yrotation Zrotation
									JOINT mixamorig:LeftHandIndex2
									{
										OFFSET 6.226883 0.000000 0.000000
										CHANNELS 3 Xrotation Yrotation Zrotation
										JOINT mixamorig:LeftHandIndex3
										{
											OFFSET 6.094330 0.000000 0.000000
											CHANNELS 3 Xrotation Yrotation Zrotation
											JOINT mixamorig:LeftHandIndex4
											{
												OFFSET 5.482605 0.000000 0.000000
												CHANNELS 3 Xrotation Yrotation Zrotation
												End Site
												{
													OFFSET -1.427902 5.233032 0.797164
												}
											}
										}
									}
								}
								JOINT mixamorig:LeftHandRing1
								{
									OFFSET 22.299240 0.021149 -3.964172
									CHANNELS 3 Xrotation Yrotation Zrotation
									JOINT mixamorig:LeftHandRing2
									{
										OFFSET 6.321869 0.000000 0.000000
										CHANNELS 3 Xrotation Yrotation Zrotation
										JOINT mixamorig:LeftHandRing3
										{
											OFFSET 5.899796 0.000000 0.000000
											CHANNELS 3 Xrotation Yrotation Zrotation
											JOINT mixamorig:LeftHandRing4
											{
												OFFSET 6.517899 0.000000 0.000000
												CHANNELS 3 Xrotation Yrotation Zrotation
												End Site
												{
													OFFSET -1.637299 6.232208 0.980890
												}
											}
										}
									}
								}
								JOINT mixamorig:LeftHandPinky1
								{
									OFFSET 20.463791 -0.302338 -8.562233
									CHANNELS 3 Xrotation Yrotation Zrotation
									JOINT mixamorig:LeftHandPinky2
									{
										OFFSET 6.908646 0.000000 0.000000
										CHANNELS 3 Xrotation Yrotation Zrotation
										JOINT mixamorig:LeftHandPinky3
										{
											OFFSET 4.622849 0.000000 0.000000
											CHANNELS 3 Xrotation Yrotation Zrotation
											JOINT mixamorig:LeftHandPinky4
											{
												OFFSET 5.216080 0.000000 0.000000
												CHANNELS 3 Xrotation Yrotation Zrotation
												End Site
												{
													OFFSET -0.606308 5.116241 0.814926
												}
											}
										}
									}
								}
							}
						}
					}
				}
				JOINT mixamorig:RightShoulder
				{
					OFFSET -12.001300 18.284088 1.348900
					CHANNELS 3 Xrotation Yrotation Zrotation
					JOINT mixamorig:RightArm
					{
						OFFSET -25.308500 -0.751312 -5.164599
						CHANNELS 3 Xrotation Yrotation Zrotation
						JOINT mixamorig:RightForeArm
						{
							OFFSET -54.684429 0.000000 0.000000
							CHANNELS 3 Xrotation Yrotation Zrotation
							JOINT mixamorig:RightHand
							{
								OFFSET -55.150291 0.000000 0.000000
								CHANNELS 3 Xrotation Yrotation Zrotation
								JOINT mixamorig:RightHandMiddle1
								{
									OFFSET -23.317566 0.000000 0.000000
									CHANNELS 3 Xrotation Yrotation Zrotation
									JOINT mixamorig:RightHandMiddle2
									{
										OFFSET -6.378403 0.000000 0.000000
										CHANNELS 3 Xrotation Yrotation Zrotation
										JOINT mixamorig:RightHandMiddle3
										{
											OFFSET -6.148193 0.000000 0.000000
											CHANNELS 3 Xrotation Yrotation Zrotation
											JOINT mixamorig:RightHandMiddle4
											{
												OFFSET -6.583389 0.000000 0.000000
												CHANNELS 3 Xrotation Yrotation Zrotation
												End Site
												{
													OFFSET 1.171692 6.395905 1.029786
												}
											}
										}
									}
								}
								JOINT mixamorig:RightHandThumb1
								{
									OFFSET -7.190521 -3.860474 5.435846
									CHANNELS 3 Xrotation Yrotation Zrotation
									JOINT mixamorig:RightHandThumb2
									{
										OFFSET -6.567429 -3.791718 3.791708
										CHANNELS 3 Xrotation Yrotation Zrotation
										JOINT mixamorig:RightHandThumb3
										{
											OFFSET -6.062469 -3.500153 3.500166
											CHANNELS 3 Xrotation Yrotation Zrotation
											JOINT mixamorig:RightHandThumb4
											{
												OFFSET -4.792618 -2.767029 2.767022
												CHANNELS 3 Xrotation Yrotation Zrotation
												End Site
												{
													OFFSET -0.100327 6.053253 1.276754
												}
											}
										}
									}
								}
								JOINT mixamorig:RightHandIndex1
								{
									OFFSET -23.048981 -0.310791 4.992554
									CHANNELS 3 Xrotation Yrotation Zrotation
									JOINT mixamorig:RightHandIndex2
									{
										OFFSET -6.227539 0.000000 0.000000
										CHANNELS 3 Xrotation Yrotation Zrotation
										JOINT mixamorig:RightHandIndex3
										{
											OFFSET -6.095047 0.000000 0.000000
											CHANNELS 3 Xrotation Yrotation Zrotation
											JOINT mixamorig:RightHandIndex4
											{
												OFFSET -5.484772 0.000000 0.000000
												CHANNELS 3 Xrotation Yrotation Zrotation
												End Site
												{
													OFFSET 1.420593 5.237305 0.797056
												}
											}
										}
									}
								}
								JOINT mixamorig:RightHandRing1
								{
									OFFSET -22.246323 0.020569 -3.963762
									CHANNELS 3 Xrotation Yrotation Zrotation
									JOINT mixamorig:RightHandRing2
									{
										OFFSET -6.322128 0.000000 0.000000
										CHANNELS 3 Xrotation Yrotation Zrotation
										JOINT mixamorig:RightHandRing3
										{
											OFFSET -5.900024 0.000000 0.000000
											CHANNELS 3 Xrotation Yrotation Zrotation
											JOINT mixamorig:RightHandRing4
											{
												OFFSET -6.518356 0.000000 0.000000
												CHANNELS 3 Xrotation Yrotation Zrotation
												End Site
												{
													OFFSET 1.636398 6.232697 0.982186
												}
											}
										}
									}
								}
								JOINT mixamorig:RightHandPinky1
								{
									OFFSET -20.411011 -0.303314 -8.561701
									CHANNELS 3 Xrotation Yrotation Zrotation
									JOINT mixamorig:RightHandPinky2
									{
										OFFSET -6.907349 0.000000 0.000000
										CHANNELS 3 Xrotation Yrotation Zrotation
										JOINT mixamorig:RightHandPinky3
										{
											OFFSET -4.623840 0.000000 0.000000
											CHANNELS 3 Xrotation Yrotation Zrotation
											JOINT mixamorig:RightHandPinky4
											{
												OFFSET -5.218353 0.000000 0.000000
												CHANNELS 3 Xrotation Yrotation Zrotation
												End Site
												{
													OFFSET 0.602097 5.118835 0.816273
												}
											}
										}
									}
								}
							}
						}
					}
				}
			}
		}
	}
	JOINT mixamorig:LeftUpLeg
	{
		OFFSET 18.168400 -13.561905 -0.039000
		CHANNELS 3 Xrotation Yrotation Zrotation
		JOINT mixamorig:LeftLeg
		{
			OFFSET 0.577358 -80.825211 -3.695000
			CHANNELS 3 Xrotation Yrotation Zrotation
			JOINT mixamorig:LeftFoot
			{
				OFFSET -0.577356 -83.370262 -6.520700
				CHANNELS 3 Xrotation Yrotation Zrotation
				JOINT mixamorig:LeftToeBase
				{
					OFFSET 0.750401 -20.798306 25.135401
					CHANNELS 3 Xrotation Yrotation Zrotation
					JOINT mixamorig:LeftToe_End
					{
						OFFSET -0.000500 0.001200 19.917799
						CHANNELS 3 Xrotation Yrotation Zrotation
						End Site
						{
							OFFSET 0.000000 19.917805 0.000000
						}
					}
				}
			}
		}
	}
	JOINT mixamorig:RightUpLeg
	{
		OFFSET -18.162500 -13.585098 -0.041000
		CHANNELS 3 Xrotation Yrotation Zrotation
		JOINT mixamorig:RightLeg
		{
			OFFSET -0.595024 -80.945297 -3.631900
			CHANNELS 3 Xrotation Yrotation Zrotation
			JOINT mixamorig:RightFoot
			{
				OFFSET 0.595024 -83.218193 -6.561200
				CHANNELS 3 Xrotation Yrotation Zrotation
				JOINT mixamorig:RightToeBase
				{
					OFFSET -0.753601 -20.807106 25.115000
					CHANNELS 3 Xrotation Yrotation Zrotation
					JOINT mixamorig:RightToe_End
					{
						OFFSET 0.000299 0.001700 19.918200
						CHANNELS 3 Xrotation Yrotation Zrotation
						End Site
						{
							OFFSET 0.000000 19.918203 0.000000
						}
					}
				}
			}
		}
	}
}
MOTION
Frames: 4
Frame Time: 0.033333
0.798773 202.133209 -2.802462 -5.475521 -4.693138 -1.724667 2.344308 0.191158 0.707076 4.686837 0.416963 1.261559 4.686835 0.416962 1.261558 -19.420673 0.185462 -0.361283 13.487790 3.562873 -1.380858 -0.000000 -0.000000 0.000000 -0.000000 -0.000000 0.000000 -0.000000 -0.000000 0.000000 12.672979 7.217831 -6.412527 0.810679 -36.515096 -69.772910 -0.000004 -27.887811 -0.000010 -19.641672 11.092942 16.563936 -1.739595 1.894146 -38.750826 -1.538278 -2.965132 -47.704264 -0.000002 -0.000001 0.000004 -0.000001 0.000000 0.000001 9.609211 12.467747 3.753377 -2.000610 5.419435 0.056551 -0.000001 0.000003 0.000011 -0.000001 -0.000000 -0.000002 0.918520 4.161487 -38.479834 3.112411 -0.947350 -32.781763 0.000001 -0.000005 -0.000005 0.000001 0.000001 -0.000001 -6.604549 -1.899757 -38.941637 -5.674148 -4.277510 -66.812542 -0.000000 0.000000 0.000001 -0.000000 -0.000000 0.000001 -7.505348 -1.648742 -44.876669 -5.905521 -6.143988 -71.734424 -0.000002 0.000000 0.000002 -0.000001 -0.000000 0.000001 11.546214 8.398554 -1.489062 -5.154662 20.067675 72.643952 -0.000000 31.316725 0.000012 5.524563 -14.215632 -12.178574 -2.176617 -4.116149 39.703821 -13.869639 -15.589198 50.034592 0.000003 0.000000 0.000003 0.000001 -0.000001 0.000003 4.312327 -1.679625 -0.685051 -1.883799 -6.256806 -0.767883 0.000001 -0.000004 -0.000017 0.000001 -0.000000 0.000002 -1.127526 -6.783480 26.665480 3.205477 0.430070 40.482128 -0.000000 0.000001 0.000006 0.000001 0.000001 0.000002 -1.947175 0.926917 43.129069 -5.186530 5.343010 51.959851 -0.000002 0.000003 0.000001 0.000001 -0.000000 0.000004 -5.194373 0.069826 48.565900 -8.841267 8.926170 65.312366 0.000000 -0.000002 0.000000 -0.000001 -0.000000 0.000000 -4.416636 13.613111 1.888573 6.457269 -0.024736 -0.254095 2.813134 0.724982 1.937174 0.002988 -0.026198 0.062610 -0.000000 0.000000 -0.000000 -2.973696 -4.152557 -0.432834 12.348858 -0.035551 0.424645 -3.656185 -15.898421 0.691075 -0.020496 -0.187013 0.446698 0.000000 -0.000001 0.000000 
0.842524 202.108170 -2.759012 -5.491583 -4.707854 -1.654386 2.367069 0.191404 0.697129 4.732355 0.417265 1.248902 4.732352 0.417266 1.248901 -19.469295 0.216421 -0.404369 13.392346 3.707045 -1.430321 0.000000 -0.000000 -0.000000 0.000000 -0.000000 -0.000000 0.000000 -0.000000 -0.000000 12.675185 7.239863 -6.413581 0.640051 -36.555692 -69.822155 -0.001631 -27.821934 -0.000085 -19.677994 11.141042 16.554207 -1.733917 1.841681 -39.555709 -1.662818 -3.074399 -49.733497 0.000002 -0.000003 0.000003 0.000002 0.000002 0.000001 9.442083 12.267114 3.848815 -1.985546 5.423194 0.061636 0.000000 0.000002 0.000009 0.000000 -0.000000 -0.000002 0.987941 4.146146 -39.287678 3.025334 -1.058297 -35.953651 -0.000001 -0.000007 -0.000007 0.000000 -0.000001 -0.000001 -6.675842 -1.937153 -39.747466 -5.864355 -4.231776 -69.870684 0.000001 0.000000 0.000003 -0.000000 0.000000 -0.000002 -7.611232 -1.651838 -45.679960 -6.080416 -6.188823 -74.812899 -0.000002 -0.000000 0.000003 0.000000 -0.000000 0.000001 11.543464 8.415461 -1.490937 -5.325513 20.152483 72.674258 -0.001388 31.318784 -0.000180 5.423218 -14.363464 -12.336957 -2.156021 -4.058305 41.013701 -14.032661 -14.740907 50.147707 0.000002 0.000002 0.000001 0.000000 -0.000002 -0.000001 4.519027 -2.079804 -0.597204 -1.880131 -6.257779 -0.769091 -0.000005 -0.000001 -0.000016 -0.000002 -0.000003 -0.000002 -0.998423 -6.817688 27.983695 3.184356 0.451338 41.777743 -0.000001 0.000000 0.000007 -0.000003 0.000001 -0.000000 -2.095543 1.006781 44.430596 -5.180411 5.342239 51.914321 -0.000003 -0.000000 0.000002 0.000000 -0.000000 0.000001 -5.432757 0.120176 49.853185 -8.835327 8.926606 65.270032 0.000002 -0.000002 -0.000000 -0.000001 0.000001 -0.000000 -4.457314 13.682045 1.825431 6.637554 -0.011693 -0.259203 2.605109 0.656898 1.960322 0.003019 -0.026466 0.063271 -0.000000 0.000000 0.000000 -3.086808 -4.382349 -0.588025 12.616868 -0.019682 0.436606 -3.795026 -15.644439 0.715337 -0.020546 -0.187494 0.447831 0.000000 0.000000 0.000000 
0.904596 202.088806 -2.712282 -5.531427 -4.726585 -1.570374 2.406986 0.193245 0.684645 4.812182 0.420833 1.232107 4.812183 0.420832 1.232108 -19.532563 0.242099 -0.439452 13.209243 3.819051 -1.456507 0.000000 0.000000 0.000000 0.000000 0.000000 0.000000 0.000000 0.000000 0.000000 12.677237 7.251556 -6.430520 0.321216 -36.578566 -69.934853 -0.004488 -27.741196 -0.000119 -19.658724 11.203698 16.574923 -1.725797 1.774910 -40.248041 -1.777033 -3.168027 -51.542674 0.000001 -0.000001 0.000006 -0.000000 0.000000 0.000002 9.192727 12.033984 3.988503 -1.941689 5.434133 0.076356 0.000000 0.000002 0.000009 0.000001 0.000001 -0.000000 1.041587 4.102313 -39.982486 2.920976 -1.143395 -38.940503 0.000001 -0.000006 -0.000004 0.000001 0.000000 -0.000002 -6.736667 -1.953449 -40.444040 -6.023713 -4.186494 -72.742164 0.000001 0.000000 0.000004 0.000000 -0.000000 -0.000001 -7.683780 -1.629168 -46.376581 -6.241146 -6.242693 -77.732703 -0.000001 0.000001 0.000001 -0.000001 -0.000000 -0.000001 11.539384 8.442829 -1.486652 -5.779002 20.329534 72.780570 -0.001935 30.788789 -0.000751 5.229947 -14.382652 -12.637250 -2.135810 -3.993965 42.320942 -14.188859 -13.889114 50.213423 0.000001 0.000004 0.000001 0.000000 0.000001 0.000002 4.700513 -2.473181 -0.517207 -1.866908 -6.261224 -0.773329 0.000001 -0.000001 -0.000014 -0.000001 -0.000002 -0.000001 -0.869024 -6.840238 29.299688 3.158210 0.466414 43.034713 0.000005 0.000002 0.000014 -0.000000 0.000001 -0.000000 -2.244819 1.079502 45.730828 -5.164637 5.340657 51.823289 -0.000000 0.000002 0.000002 0.000001 -0.000000 0.000001 -5.665716 0.159436 51.140416 -8.821755 8.931233 65.190918 0.000002 -0.000001 0.000000 0.000001 0.000000 -0.000000 -4.406818 13.812371 1.727539 6.701589 0.013722 -0.259451 2.447984 0.516695 1.991369 0.003038 -0.026636 0.063667 0.000000 0.000000 0.000000 -3.171609 -4.613825 -0.769055 12.871024 0.002506 0.448448 -3.924788 -15.391476 0.748010 -0.020585 -0.187858 0.448687 -0.000000 -0.000001 -0.000000 
0.985128 202.081268 -2.637295 -5.553165 -4.751159 -1.481608 2.453183 0.199701 0.670448 4.904517 0.433559 1.211562 4.904521 0.433559 1.211563 -19.607238 0.260499 -0.467757 12.943450 3.886947 -1.458270 -0.000000 0.000000 -0.000000 -0.000000 0.000000 -0.000000 -0.000000 0.000000 -0.000000 12.678071 7.245928 -6.459803 0.164841 -36.541850 -69.923549 -0.007921 -27.668587 -0.000227 -19.712810 11.398775 16.664166 -1.715786 1.695052 -40.830297 -1.879870 -3.247353 -53.133869 0.000001 -0.000000 0.000003 0.000002 0.000001 -0.000001 8.867735 11.770607 4.167446 -1.871122 5.451780 0.099974 0.000002 0.000000 0.000012 -0.000001 0.000000 0.000000 1.079308 4.032464 -40.566710 2.804052 -1.201655 -41.734870 0.000001 -0.000007 -0.000002 -0.000000 -0.000002 -0.000001 -6.786766 -1.950315 -41.033615 -6.154011 -4.145422 -75.420458 0.000002 0.000000 0.000003 -0.000001 -0.000000 0.000001 -7.723909 -1.583684 -46.968629 -6.389823 -6.306411 -80.485399 -0.000005 -0.000001 0.000000 -0.000002 -0.000000 0.000001 11.534425 8.472991 -1.495398 -6.199650 20.501508 72.876165 -0.003262 30.334403 -0.001236 5.016624 -14.485832 -12.947852 -2.116485 -3.921932 43.600355 -14.339605 -13.036984 50.193421 0.000004 0.000001 0.000001 0.000001 -0.000000 -0.000001 4.847242 -2.856474 -0.449116 -1.840945 -6.268060 -0.781696 -0.000002 0.000000 -0.000015 -0.000004 -0.000000 0.000001 -0.742633 -6.847377 30.588039 3.126222 0.472639 44.215677 0.000003 -0.000001 0.000005 0.000003 0.000000 0.000000 -2.391338 1.142142 47.005065 -5.134177 5.337563 51.650843 -0.000000 0.000002 0.000001 -0.000002 0.000001 0.000004 -5.885791 0.184942 52.403581 -8.795695 8.940520 65.042013 0.000003 0.000002 -0.000000 -0.000001 -0.000001 0.000000 -4.287632 13.864383 1.586689 6.626911 0.045291 -0.254617 2.357646 0.452361 2.022665 0.003041 -0.026650 0.063699 0.000000 0.000000 0.000000 -3.235231 -4.811926 -0.952684 13.058016 0.027532 0.457704 -4.025523 -15.173875 0.789578 -0.020597 -0.187962 0.448926 0.000000 -0.000001 0.000000 
